<svg width="24" height="24" viewBox="0 0 24 24" fill="none" xmlns="http://www.w3.org/2000/svg">
<path d="M11.999 0C13.6239 0 15.1726 0.324192 16.5885 0.910082L16.61 0.919847C18.0688 1.52722 19.3832 2.41582 20.4827 3.51729C21.5881 4.62072 22.4786 5.94288 23.088 7.41346C23.6758 8.82741 23.998 10.3781 23.998 12.001C23.998 13.6258 23.6739 15.1745 23.088 16.5904L23.0782 16.6119C22.4689 18.0708 21.5822 19.3851 20.4808 20.4847C19.3773 21.59 18.0552 22.4806 16.5846 23.0899C15.1706 23.6778 13.62 24 11.9971 24C10.3742 24 8.8235 23.6758 7.4076 23.0899L7.38612 23.0802C5.92725 22.4728 4.61291 21.5842 3.51339 20.4847L3.51534 20.4808C2.40996 19.3754 1.51941 18.0552 0.910082 16.5885C0.324192 15.1726 0 13.6239 0 11.999C0 10.3742 0.324192 8.82545 0.910082 7.40955L0.919847 7.38807C1.52722 5.92921 2.41582 4.61486 3.51534 3.51534H3.51729C4.62267 2.40996 5.94288 1.51941 7.41151 0.910082C8.82545 0.324192 10.3742 0 11.999 0ZM3.31809 18.4497L3.36496 18.4223C4.51721 17.7798 7.51697 17.5669 8.76296 16.6979C8.85475 16.5612 8.9524 16.3619 9.04809 16.1452C9.19066 15.819 9.32151 15.4616 9.40353 15.2195C9.0559 14.8093 8.7571 14.3465 8.47197 13.8914L7.52868 12.3896C7.18496 11.874 7.00529 11.4053 6.99357 11.0186C6.98771 10.837 7.01896 10.673 7.08731 10.5265C7.15762 10.3742 7.26503 10.2472 7.41151 10.1496C7.47986 10.1027 7.55603 10.0636 7.64 10.0343C7.57751 9.21995 7.55603 8.19465 7.59508 7.33534C7.61461 7.13223 7.65563 6.92717 7.71031 6.72406C7.95248 5.8628 8.55594 5.1695 9.30393 4.69298C9.71601 4.42933 10.1691 4.23208 10.6398 4.09928C10.9405 4.01335 10.3839 3.05639 10.6944 3.02319C12.1924 2.86891 14.616 4.23794 15.6628 5.3687C16.1862 5.93506 16.5162 6.68696 16.5865 7.68102L16.528 10.13C16.7896 10.2101 16.9576 10.3761 17.024 10.6437C17.1002 10.9425 17.0181 11.3604 16.7643 11.9326C16.7604 11.9424 16.7545 11.9541 16.7486 11.9639L15.6726 13.7352C15.2781 14.3855 14.8757 15.0398 14.3543 15.5534C14.4031 15.6237 14.4519 15.6921 14.4988 15.7604C14.7117 16.0729 14.9265 16.3854 15.2019 16.6647C15.2117 16.6744 15.2195 16.6842 15.2253 16.694C16.4635 17.5689 19.4769 17.7818 20.6331 18.4262L20.68 18.4536C22.0216 16.6529 22.8145 14.4207 22.8145 12.0029C22.8145 9.01684 21.6037 6.31199 19.6468 4.35707C17.6939 2.39824 14.989 1.1874 12.0029 1.1874C9.01684 1.1874 6.31199 2.39824 4.35707 4.35511C2.39629 6.30808 1.18545 9.01294 1.18545 11.999C1.18545 14.4168 1.97835 16.649 3.31809 18.4497Z" fill="#05BBC2"/>
</svg>
