<svg width="19" height="20" viewBox="0 0 19 20" fill="none" xmlns="http://www.w3.org/2000/svg">
<g clip-path="url(#clip0_93_13440)">
<path d="M17.3786 1.0194H13.932V0.679605C13.932 0.315578 13.6408 0 13.2524 0C12.8884 0 12.5728 0.29119 12.5728 0.679605V1.0194H5.89807V0.679605C5.89807 0.315578 5.60688 0 5.21847 0C4.85444 0 4.53886 0.29119 4.53886 0.679605V1.0194H0.970959C0.41267 1.0194 0 1.40781 0 1.99036V19.0534C0 19.5874 0.388407 20 0.970959 20H17.3303C17.8886 20 18.3013 19.5874 18.3013 19.0534V5.82528L18.301 1.99028C18.3496 1.45622 17.9369 1.0194 17.3786 1.0194ZM1.38359 2.35439H4.58747V2.69419C4.58747 3.05821 4.87866 3.37379 5.26707 3.37379C5.6311 3.37379 5.94668 3.0826 5.94668 2.69419V2.35439H12.6214V2.69419C12.6214 3.05821 12.9126 3.37379 13.301 3.37379C13.665 3.37379 13.9806 3.0826 13.9806 2.69419V2.35439H17.0388V5.14563H1.43192L1.43223 2.35439H1.38359ZM17.0146 18.6408H1.40777V6.4807H17.0146V18.6408ZM4.05332 9.63609H6.06791V11.6507H4.05332V9.63609ZM8.20382 9.63609H10.2184V11.6507H8.20382V9.63609ZM12.3543 9.63609H14.3689V11.6507H12.3543V9.63609ZM4.05332 13.5681H6.06791V15.5827H4.05332V13.5681ZM8.20382 13.5681H10.2184V15.5827H8.20382V13.5681ZM12.3543 13.5681H14.3689V15.5827H12.3543V13.5681Z" fill="#3D3D3D"/>
</g>
<defs>
<clipPath id="clip0_93_13440">
<rect width="19" height="20" fill="white"/>
</clipPath>
</defs>
</svg>
