<svg xmlns="http://www.w3.org/2000/svg" xmlns:xlink="http://www.w3.org/1999/xlink" width="492" zoomAndPan="magnify" viewBox="0 0 369 76.499998" height="102" preserveAspectRatio="xMidYMid meet" version="1.0"><defs><g/><clipPath id="829f165972"><path d="M 1.199219 0 L 77.203125 0 L 77.203125 76.003906 L 1.199219 76.003906 Z M 1.199219 0 " clip-rule="nonzero"/></clipPath></defs><g fill="#000000" fill-opacity="1"><g transform="translate(94.290051, 56.330501)"><g><path d="M 3.375 11.765625 L 3.375 -31.84375 L 12.359375 -31.84375 L 12.359375 -28.046875 C 13.285156 -29.410156 14.484375 -30.484375 15.953125 -31.265625 C 17.421875 -32.054688 19.257812 -32.453125 21.46875 -32.453125 C 23.71875 -32.453125 25.773438 -32.035156 27.640625 -31.203125 C 29.515625 -30.378906 31.125 -29.222656 32.46875 -27.734375 C 33.820312 -26.253906 34.867188 -24.507812 35.609375 -22.5 C 36.359375 -20.488281 36.734375 -18.273438 36.734375 -15.859375 C 36.734375 -13.484375 36.359375 -11.289062 35.609375 -9.28125 C 34.867188 -7.269531 33.832031 -5.539062 32.5 -4.09375 C 31.175781 -2.65625 29.578125 -1.519531 27.703125 -0.6875 C 25.835938 0.132812 23.78125 0.546875 21.53125 0.546875 C 19.28125 0.546875 17.421875 0.164062 15.953125 -0.59375 C 14.484375 -1.363281 13.285156 -2.410156 12.359375 -3.734375 L 12.359375 11.765625 Z M 12.359375 -17.015625 L 12.359375 -14.78125 C 12.484375 -13.894531 12.742188 -13.046875 13.140625 -12.234375 C 13.546875 -11.429688 14.078125 -10.75 14.734375 -10.1875 C 15.398438 -9.625 16.164062 -9.171875 17.03125 -8.828125 C 17.894531 -8.492188 18.851562 -8.328125 19.90625 -8.328125 C 21.070312 -8.328125 22.113281 -8.523438 23.03125 -8.921875 C 23.957031 -9.328125 24.742188 -9.867188 25.390625 -10.546875 C 26.035156 -11.234375 26.535156 -12.039062 26.890625 -12.96875 C 27.253906 -13.894531 27.4375 -14.859375 27.4375 -15.859375 C 27.4375 -16.910156 27.265625 -17.90625 26.921875 -18.84375 C 26.585938 -19.789062 26.085938 -20.613281 25.421875 -21.3125 C 24.753906 -22.019531 23.957031 -22.570312 23.03125 -22.96875 C 22.113281 -23.375 21.070312 -23.578125 19.90625 -23.578125 C 17.8125 -23.578125 16.082031 -22.941406 14.71875 -21.671875 C 13.351562 -20.410156 12.566406 -18.859375 12.359375 -17.015625 Z M 12.359375 -17.015625 "/></g></g></g><g fill="#000000" fill-opacity="1"><g transform="translate(132.706794, 56.330501)"><g><path d="M 3.375 -43.421875 L 12.359375 -43.421875 L 12.359375 0 L 3.375 0 Z M 3.375 -43.421875 "/></g></g></g><g fill="#000000" fill-opacity="1"><g transform="translate(148.447411, 56.330501)"><g><path d="M 35.046875 0 L 26.0625 0 L 26.0625 -3.734375 C 25.132812 -2.410156 23.9375 -1.363281 22.46875 -0.59375 C 21 0.164062 19.140625 0.546875 16.890625 0.546875 C 14.640625 0.546875 12.578125 0.132812 10.703125 -0.6875 C 8.835938 -1.519531 7.238281 -2.65625 5.90625 -4.09375 C 4.582031 -5.539062 3.546875 -7.269531 2.796875 -9.28125 C 2.054688 -11.289062 1.6875 -13.484375 1.6875 -15.859375 C 1.6875 -18.273438 2.054688 -20.488281 2.796875 -22.5 C 3.546875 -24.507812 4.59375 -26.253906 5.9375 -27.734375 C 7.289062 -29.222656 8.898438 -30.378906 10.765625 -31.203125 C 12.640625 -32.035156 14.679688 -32.453125 16.890625 -32.453125 C 19.140625 -32.453125 21 -32.054688 22.46875 -31.265625 C 23.9375 -30.484375 25.132812 -29.410156 26.0625 -28.046875 L 26.0625 -31.84375 L 35.046875 -31.84375 Z M 26.0625 -17.015625 C 25.851562 -18.859375 25.066406 -20.410156 23.703125 -21.671875 C 22.335938 -22.941406 20.609375 -23.578125 18.515625 -23.578125 C 17.347656 -23.578125 16.300781 -23.375 15.375 -22.96875 C 14.457031 -22.570312 13.664062 -22.019531 13 -21.3125 C 12.332031 -20.613281 11.828125 -19.789062 11.484375 -18.84375 C 11.148438 -17.90625 10.984375 -16.910156 10.984375 -15.859375 C 10.984375 -14.859375 11.160156 -13.894531 11.515625 -12.96875 C 11.878906 -12.039062 12.382812 -11.234375 13.03125 -10.546875 C 13.675781 -9.867188 14.46875 -9.328125 15.40625 -8.921875 C 16.351562 -8.523438 17.390625 -8.328125 18.515625 -8.328125 C 19.554688 -8.328125 20.507812 -8.492188 21.375 -8.828125 C 22.238281 -9.171875 23.003906 -9.625 23.671875 -10.1875 C 24.335938 -10.75 24.867188 -11.429688 25.265625 -12.234375 C 25.671875 -13.046875 25.9375 -13.894531 26.0625 -14.78125 Z M 26.0625 -17.015625 "/></g></g></g><g fill="#000000" fill-opacity="1"><g transform="translate(186.864154, 56.330501)"><g><path d="M 3.375 -31.84375 L 12.359375 -31.84375 L 12.359375 -27.203125 C 13.523438 -28.847656 14.960938 -30.132812 16.671875 -31.0625 C 18.378906 -31.988281 20.320312 -32.453125 22.5 -32.453125 C 24.1875 -32.453125 25.710938 -32.160156 27.078125 -31.578125 C 28.441406 -30.992188 29.597656 -30.1875 30.546875 -29.15625 C 31.492188 -28.132812 32.226562 -26.910156 32.75 -25.484375 C 33.269531 -24.054688 33.53125 -22.476562 33.53125 -20.75 L 33.53125 0 L 24.546875 0 L 24.546875 -17.609375 C 24.546875 -19.421875 24.03125 -20.859375 23 -21.921875 C 21.976562 -22.984375 20.6875 -23.515625 19.125 -23.515625 C 18.113281 -23.515625 17.207031 -23.300781 16.40625 -22.875 C 15.601562 -22.457031 14.898438 -21.894531 14.296875 -21.1875 C 13.691406 -20.488281 13.226562 -19.6875 12.90625 -18.78125 C 12.582031 -17.882812 12.398438 -16.929688 12.359375 -15.921875 L 12.359375 0 L 3.375 0 Z M 3.375 -31.84375 "/></g></g></g><g fill="#000000" fill-opacity="1"><g transform="translate(223.773173, 56.330501)"><g><path d="M 3.375 -31.84375 L 12.359375 -31.84375 L 12.359375 -27.203125 C 13.523438 -28.847656 14.960938 -30.132812 16.671875 -31.0625 C 18.378906 -31.988281 20.320312 -32.453125 22.5 -32.453125 C 24.1875 -32.453125 25.710938 -32.160156 27.078125 -31.578125 C 28.441406 -30.992188 29.597656 -30.1875 30.546875 -29.15625 C 31.492188 -28.132812 32.226562 -26.910156 32.75 -25.484375 C 33.269531 -24.054688 33.53125 -22.476562 33.53125 -20.75 L 33.53125 0 L 24.546875 0 L 24.546875 -17.609375 C 24.546875 -19.421875 24.03125 -20.859375 23 -21.921875 C 21.976562 -22.984375 20.6875 -23.515625 19.125 -23.515625 C 18.113281 -23.515625 17.207031 -23.300781 16.40625 -22.875 C 15.601562 -22.457031 14.898438 -21.894531 14.296875 -21.1875 C 13.691406 -20.488281 13.226562 -19.6875 12.90625 -18.78125 C 12.582031 -17.882812 12.398438 -16.929688 12.359375 -15.921875 L 12.359375 0 L 3.375 0 Z M 3.375 -31.84375 "/></g></g></g><g fill="#000000" fill-opacity="1"><g transform="translate(260.682192, 56.330501)"><g><path d="M 3.375 -31.84375 L 12.359375 -31.84375 L 12.359375 -26.109375 C 13.691406 -28.242188 15.375 -29.832031 17.40625 -30.875 C 19.4375 -31.925781 21.613281 -32.453125 23.9375 -32.453125 L 23.9375 -22.984375 C 23.78125 -22.984375 23.640625 -22.984375 23.515625 -22.984375 C 22.234375 -22.984375 20.945312 -22.8125 19.65625 -22.46875 C 18.375 -22.125 17.207031 -21.566406 16.15625 -20.796875 C 15.113281 -20.035156 14.25 -19.101562 13.5625 -18 C 12.882812 -16.894531 12.484375 -15.597656 12.359375 -14.109375 L 12.359375 0 L 3.375 0 Z M 3.375 -31.84375 "/></g></g></g><g fill="#000000" fill-opacity="1"><g transform="translate(285.710372, 56.330501)"><g><path d="M 2.53125 -4.21875 C 2.53125 -5.507812 2.992188 -6.613281 3.921875 -7.53125 C 4.847656 -8.457031 5.992188 -8.921875 7.359375 -8.921875 C 8.640625 -8.921875 9.742188 -8.457031 10.671875 -7.53125 C 11.597656 -6.613281 12.0625 -5.507812 12.0625 -4.21875 C 12.0625 -2.851562 11.597656 -1.707031 10.671875 -0.78125 C 9.742188 0.144531 8.640625 0.609375 7.359375 0.609375 C 5.992188 0.609375 4.847656 0.144531 3.921875 -0.78125 C 2.992188 -1.707031 2.53125 -2.851562 2.53125 -4.21875 Z M 2.53125 -4.21875 "/></g></g></g><g fill="#000000" fill-opacity="1"><g transform="translate(300.30512, 56.330501)"><g><path d="M 35.046875 0 L 26.0625 0 L 26.0625 -3.734375 C 25.132812 -2.410156 23.9375 -1.363281 22.46875 -0.59375 C 21 0.164062 19.140625 0.546875 16.890625 0.546875 C 14.640625 0.546875 12.578125 0.132812 10.703125 -0.6875 C 8.835938 -1.519531 7.238281 -2.65625 5.90625 -4.09375 C 4.582031 -5.539062 3.546875 -7.269531 2.796875 -9.28125 C 2.054688 -11.289062 1.6875 -13.484375 1.6875 -15.859375 C 1.6875 -18.273438 2.054688 -20.488281 2.796875 -22.5 C 3.546875 -24.507812 4.59375 -26.253906 5.9375 -27.734375 C 7.289062 -29.222656 8.898438 -30.378906 10.765625 -31.203125 C 12.640625 -32.035156 14.679688 -32.453125 16.890625 -32.453125 C 19.140625 -32.453125 21 -32.054688 22.46875 -31.265625 C 23.9375 -30.484375 25.132812 -29.410156 26.0625 -28.046875 L 26.0625 -31.84375 L 35.046875 -31.84375 Z M 26.0625 -17.015625 C 25.851562 -18.859375 25.066406 -20.410156 23.703125 -21.671875 C 22.335938 -22.941406 20.609375 -23.578125 18.515625 -23.578125 C 17.347656 -23.578125 16.300781 -23.375 15.375 -22.96875 C 14.457031 -22.570312 13.664062 -22.019531 13 -21.3125 C 12.332031 -20.613281 11.828125 -19.789062 11.484375 -18.84375 C 11.148438 -17.90625 10.984375 -16.910156 10.984375 -15.859375 C 10.984375 -14.859375 11.160156 -13.894531 11.515625 -12.96875 C 11.878906 -12.039062 12.382812 -11.234375 13.03125 -10.546875 C 13.675781 -9.867188 14.46875 -9.328125 15.40625 -8.921875 C 16.351562 -8.523438 17.390625 -8.328125 18.515625 -8.328125 C 19.554688 -8.328125 20.507812 -8.492188 21.375 -8.828125 C 22.238281 -9.171875 23.003906 -9.625 23.671875 -10.1875 C 24.335938 -10.75 24.867188 -11.429688 25.265625 -12.234375 C 25.671875 -13.046875 25.9375 -13.894531 26.0625 -14.78125 Z M 26.0625 -17.015625 "/></g></g></g><g fill="#000000" fill-opacity="1"><g transform="translate(338.721874, 56.330501)"><g><path d="M 2.71875 -40.171875 C 2.71875 -41.535156 3.207031 -42.695312 4.1875 -43.65625 C 5.175781 -44.625 6.414062 -45.109375 7.90625 -45.109375 C 9.351562 -45.109375 10.566406 -44.625 11.546875 -43.65625 C 12.535156 -42.695312 13.03125 -41.535156 13.03125 -40.171875 C 13.03125 -38.765625 12.535156 -37.578125 11.546875 -36.609375 C 10.566406 -35.640625 9.351562 -35.15625 7.90625 -35.15625 C 6.414062 -35.15625 5.175781 -35.640625 4.1875 -36.609375 C 3.207031 -37.578125 2.71875 -38.765625 2.71875 -40.171875 Z M 3.375 -31.84375 L 12.359375 -31.84375 L 12.359375 0 L 3.375 0 Z M 3.375 -31.84375 "/></g></g></g><g fill="#000000" fill-opacity="1"><g transform="translate(354.456783, 56.330501)"><g/></g></g><g clip-path="url(#829f165972)"><path fill="#00c4cc" d="M 1.199219 0 L 47.109375 0 L 62.160156 15.039062 L 16.238281 15.039062 L 16.238281 60.964844 L 1.199219 45.910156 Z M 30.570312 29.371094 L 47.828125 29.371094 L 47.828125 46.628906 L 30.570312 46.628906 Z M 31.289062 60.964844 L 62.160156 60.964844 L 62.160156 15.039062 L 77.203125 30.09375 L 77.203125 76.003906 L 31.289062 76.003906 Z M 31.289062 60.964844 " fill-opacity="1" fill-rule="evenodd"/></g></svg>