<svg width="462" height="241" viewBox="0 0 462 241" fill="none" xmlns="http://www.w3.org/2000/svg">
<g opacity="0.77">
<path d="M109.799 20H8.96721C4.22632 20 0.383057 22.9408 0.383057 26.5684V133.315C0.383057 136.942 4.22632 139.883 8.96721 139.883H109.799C114.54 139.883 118.383 136.942 118.383 133.315V26.5684C118.383 22.9408 114.54 20 109.799 20Z" fill="#EBEBEB"/>
</g>
<g opacity="0.28">
<path d="M416.305 0.526001H327.215C322.105 0.526001 317.963 4.66829 317.963 9.77807V70.0123C317.963 75.1221 322.105 79.2644 327.215 79.2644H416.305C421.414 79.2644 425.557 75.1221 425.557 70.0123V9.77807C425.557 4.66829 421.414 0.526001 416.305 0.526001Z" fill="#CCFDFF"/>
</g>
<g opacity="0.77">
<path d="M406.258 24.028H304.043C303.085 24.0469 302.173 24.4408 301.502 25.125C300.831 25.8092 300.455 26.7292 300.455 27.6874C300.455 28.6456 300.831 29.5656 301.502 30.2498C302.173 30.9341 303.085 31.3279 304.043 31.3469H406.258C407.216 31.3279 408.128 30.9341 408.799 30.2498C409.47 29.5656 409.846 28.6456 409.846 27.6874C409.846 26.7292 409.47 25.8092 408.799 25.125C408.128 24.4408 407.216 24.0469 406.258 24.028Z" fill="#F2FFFF"/>
</g>
<g opacity="0.77">
<path d="M372.079 53.7877H304.042C302.021 53.7877 300.383 55.4258 300.383 57.4465V57.4479C300.383 59.4686 302.021 61.1066 304.042 61.1066H372.079C374.099 61.1066 375.737 59.4686 375.737 57.4479V57.4465C375.737 55.4258 374.099 53.7877 372.079 53.7877Z" fill="#F2FFFF"/>
</g>
<g opacity="0.77">
<path d="M351.491 38.9069H304.042C302.021 38.9069 300.383 40.5449 300.383 42.5656V42.567C300.383 44.5877 302.021 46.2258 304.042 46.2258H351.491C353.512 46.2258 355.15 44.5877 355.15 42.567V42.5656C355.15 40.5449 353.512 38.9069 351.491 38.9069Z" fill="#F2FFFF"/>
</g>
<rect x="9.14917" y="31.9564" width="343.101" height="194.907" rx="8" fill="white"/>
<g filter="url(#filter0_d_462_9874)">
<rect x="16.6663" y="59.877" width="328.067" height="152.489" rx="6" fill="#F0FEFF"/>
</g>
<path d="M24.1049 43.8357C24.1049 45.1699 23.0228 46.2519 21.6887 46.2519C20.3545 46.2519 19.2725 45.1699 19.2725 43.8357C19.2725 42.5015 20.3545 41.4195 21.6887 41.4195C23.0228 41.4195 24.1049 42.5015 24.1049 43.8357Z" fill="#D3745F"/>
<path d="M31.0851 43.8357C31.0851 45.1699 30.0031 46.2519 28.6689 46.2519C27.3347 46.2519 26.2527 45.1699 26.2527 43.8357C26.2527 42.5015 27.3347 41.4195 28.6689 41.4195C30.0031 41.4195 31.0851 42.5015 31.0851 43.8357Z" fill="#F0BB65"/>
<path d="M38.0656 43.8357C38.0656 45.1699 36.9835 46.2519 35.6494 46.2519C34.3152 46.2519 33.2332 45.1699 33.2332 43.8357C33.2332 42.5015 34.3152 41.4195 35.6494 41.4195C36.9835 41.4195 38.0656 42.5015 38.0656 43.8357Z" fill="#7DC566"/>
<g filter="url(#filter1_d_462_9874)">
<rect x="22.0361" y="97.463" width="104.165" height="51.5457" rx="4" fill="#C0FAFC"/>
</g>
<rect x="32.7747" y="107.128" width="63.8952" height="5.36934" fill="white" fill-opacity="0.67"/>
<rect x="32.7747" y="116.255" width="78.9294" height="5.36934" fill="white" fill-opacity="0.67"/>
<rect x="52.6414" y="73.3008" width="140.677" height="12.3495" rx="2" fill="#C0FAFC"/>
<rect x="32.7747" y="124.846" width="53.1565" height="5.36934" fill="white" fill-opacity="0.67"/>
<rect x="32.7747" y="133.974" width="82.6879" height="5.36934" fill="white" fill-opacity="0.67"/>
<g filter="url(#filter2_d_462_9874)">
<rect x="22.0361" y="152.766" width="104.165" height="51.5457" rx="4" fill="#C0FAFC"/>
</g>
<rect x="32.7747" y="162.431" width="63.8952" height="5.36934" fill="white" fill-opacity="0.67"/>
<rect x="32.7747" y="171.559" width="47.7872" height="5.36934" fill="white" fill-opacity="0.67"/>
<rect x="32.7747" y="180.15" width="82.6879" height="5.36934" fill="white" fill-opacity="0.67"/>
<rect x="32.7747" y="189.278" width="82.6879" height="5.36934" fill="white" fill-opacity="0.67"/>
<g filter="url(#filter3_d_462_9874)">
<rect x="128.886" y="97.4621" width="104.165" height="51.5457" rx="4" fill="#C0FAFC"/>
</g>
<rect x="139.625" y="107.127" width="32.2161" height="5.36934" fill="white" fill-opacity="0.67"/>
<rect x="139.625" y="116.255" width="82.6879" height="5.36934" fill="white" fill-opacity="0.67"/>
<rect x="139.625" y="124.846" width="82.6879" height="5.36934" fill="white" fill-opacity="0.67"/>
<rect x="139.625" y="133.974" width="63.8952" height="5.36934" fill="white" fill-opacity="0.67"/>
<g filter="url(#filter4_d_462_9874)">
<rect x="128.886" y="152.766" width="104.165" height="51.5457" rx="4" fill="#C0FAFC"/>
</g>
<rect x="139.625" y="162.431" width="82.6879" height="5.36934" fill="white" fill-opacity="0.67"/>
<rect x="139.625" y="171.559" width="65.506" height="5.36934" fill="white" fill-opacity="0.67"/>
<rect x="139.625" y="180.15" width="40.807" height="5.36934" fill="white" fill-opacity="0.67"/>
<rect x="139.625" y="189.278" width="82.6879" height="5.36934" fill="white" fill-opacity="0.67"/>
<g filter="url(#filter5_d_462_9874)">
<rect x="235.736" y="97.4621" width="104.165" height="51.5457" rx="4" fill="#C0FAFC"/>
</g>
<rect x="246.475" y="107.127" width="74.097" height="5.36934" fill="white" fill-opacity="0.67"/>
<rect x="246.475" y="116.255" width="82.6879" height="5.36934" fill="white" fill-opacity="0.67"/>
<rect x="246.475" y="124.846" width="74.097" height="5.36934" fill="white" fill-opacity="0.67"/>
<rect x="246.475" y="133.974" width="54.7673" height="5.36934" fill="white" fill-opacity="0.67"/>
<g filter="url(#filter6_d_462_9874)">
<rect x="235.736" y="152.766" width="104.165" height="51.5457" rx="4" fill="#C0FAFC"/>
</g>
<rect x="246.475" y="162.431" width="63.8952" height="5.36934" fill="white" fill-opacity="0.67"/>
<rect x="246.475" y="171.559" width="82.6879" height="5.36934" fill="white" fill-opacity="0.67"/>
<rect x="246.475" y="180.15" width="82.6879" height="5.36934" fill="white" fill-opacity="0.67"/>
<rect x="246.475" y="189.278" width="82.6879" height="5.36934" fill="white" fill-opacity="0.67"/>
<circle cx="35.9959" cy="79.7436" r="9.66482" fill="#C0FAFC"/>
<g filter="url(#filter7_d_462_9874)">
<path d="M399.092 179.603C399.092 179.603 396.206 169.425 403.542 169.649C410.876 169.872 411.838 180.05 410.516 186.091C409.193 192.13 406.669 195.71 404.384 197.611C402.1 199.513 397.068 201.645 392.249 198.845C387.43 196.045 381.538 178.597 382.861 176.919C384.183 175.24 387.189 172.445 388.151 173.451C389.112 174.458 399.333 184.3 399.333 184.3L399.092 179.603Z" fill="#BAD3E0"/>
<path d="M394.76 199.881C393.926 199.666 393.084 199.331 392.247 198.845C392.027 198.717 391.806 198.559 391.583 198.374C389.475 193.717 388.715 188.263 391.171 183.607C392.006 182.021 393.123 180.707 394.509 179.648C394.846 179.973 395.178 180.294 395.503 180.607C392.746 183.117 391.512 187.039 391.672 190.529C391.818 193.754 392.965 197.027 394.762 199.881H394.76Z" fill="#3684A7"/>
<path d="M330.002 179.603C330.002 179.603 333.058 169.425 325.29 169.649C317.522 169.872 316.503 180.05 317.905 186.091C319.305 192.13 321.98 195.71 324.399 197.611C326.818 199.511 332.147 201.645 337.248 198.845C342.352 196.045 348.59 178.597 347.19 176.919C345.79 175.24 342.606 172.445 341.587 173.451C340.568 174.458 329.746 184.3 329.746 184.3L330 179.603H330.002Z" fill="#BAD3E0"/>
<path d="M334.589 199.881C335.472 199.666 336.364 199.331 337.25 198.845C337.482 198.717 337.718 198.559 337.953 198.374C340.185 193.717 340.989 188.263 338.39 183.607C337.504 182.021 336.322 180.707 334.855 179.648C334.498 179.973 334.147 180.294 333.804 180.607C336.724 183.117 338.03 187.039 337.862 190.529C337.708 193.754 336.492 197.027 334.591 199.881H334.589Z" fill="#3684A7"/>
<path d="M344.799 202.376C344.475 203.202 347.336 227.536 349.946 233.999C345.204 235.925 346.47 236.199 355.02 236.475C359.967 236.475 362.166 236.475 362.49 235.649C362.815 234.823 360.475 210.213 357.793 205.677C355.112 201.14 344.799 202.378 344.799 202.378V202.376Z" fill="white"/>
<path d="M385.569 202.376C385.895 203.202 383.056 227.536 380.452 233.999C385.198 235.925 383.932 236.199 375.382 236.475C370.435 236.475 368.236 236.475 367.91 235.649C367.584 234.823 369.902 210.213 372.578 205.677C375.254 201.14 385.569 202.378 385.569 202.378V202.376Z" fill="white"/>
<path d="M342.068 173.78C342.068 174.88 342.893 208.153 345.778 210.352C348.664 212.552 381.785 215.302 383.846 212.828C385.907 210.352 386.87 177.081 386.87 177.081L342.068 173.781V173.78Z" fill="white"/>
<path d="M342.455 184.744C356.134 188.59 374.685 193.782 385.958 196.833C386.572 187.299 386.868 177.081 386.868 177.081L342.065 173.781C342.065 174.181 342.175 178.858 342.454 184.746L342.455 184.744Z" fill="#BAD3E0"/>
<path d="M363.577 206.464C370.577 206.464 376.252 200.787 376.252 193.783C376.252 186.78 370.577 181.103 363.577 181.103C356.577 181.103 350.902 186.78 350.902 193.783C350.902 200.787 356.577 206.464 363.577 206.464Z" fill="#004A63"/>
<path d="M430.069 125.754C430.069 159.456 402.695 176.246 367.53 176.246C332.366 176.246 302.724 159.454 302.724 125.754C302.724 92.0534 331.231 64.7319 366.396 64.7319C401.561 64.7319 430.067 92.0517 430.067 125.754H430.069Z" fill="white"/>
<path d="M420.479 125.954C420.479 154.922 396.95 169.356 366.724 169.356C336.498 169.356 311.02 154.922 311.02 125.954C311.02 96.9863 335.523 73.5025 365.749 73.5025C395.975 73.5025 420.477 96.9863 420.477 125.954H420.479Z" fill="#036064"/>
<path d="M417.081 128.023C417.081 155.191 395.014 168.729 366.664 168.729C338.314 168.729 314.418 155.191 314.418 128.023C314.418 100.854 337.399 78.8285 365.749 78.8285C394.1 78.8285 417.081 100.854 417.081 128.023Z" fill="#02B9C0"/>
<path d="M306.615 144.966C307.264 142.697 307.101 107.524 306.29 106.39C305.48 105.255 291.709 110.929 289.764 113.684C287.82 116.439 290.25 141.239 293.167 143.508C296.083 145.776 306.615 144.966 306.615 144.966Z" fill="#036064"/>
<path d="M426.37 144.966C425.721 142.697 425.884 107.524 426.694 106.39C427.504 105.255 441.275 110.929 443.22 113.684C445.165 116.439 442.734 141.239 439.818 143.508C436.901 145.776 426.37 144.966 426.37 144.966Z" fill="#036064"/>
<path d="M349.018 129.972C349.018 139.684 344.491 142.371 338.906 142.371C333.322 142.371 328.795 139.684 328.795 129.972C328.795 120.26 333.322 112.386 338.906 112.386C344.491 112.386 349.018 120.26 349.018 129.972Z" fill="white"/>
<path d="M403.836 129.972C403.836 139.684 399.309 142.371 393.725 142.371C388.14 142.371 383.613 139.684 383.613 129.972C383.613 120.26 388.14 112.386 393.725 112.386C399.309 112.386 403.836 120.26 403.836 129.972Z" fill="white"/>
<path d="M358.872 143.35C362.204 143.501 365.48 143.489 368.795 143.074C372.061 142.665 375.366 142.046 378.341 140.593C379.046 140.25 378.999 138.913 378.044 139.081C374.847 139.647 371.72 140.529 368.511 141.034C365.31 141.537 362.009 141.843 358.769 141.752C357.734 141.723 357.86 143.303 358.872 143.348V143.35Z" fill="white"/>
<path d="M342.149 105.25C344.134 107.548 345.94 110.057 348.123 112.167C348.858 112.877 349.919 111.826 349.419 111.012C347.831 108.432 345.617 106.204 343.58 103.974C342.853 103.179 341.435 104.423 342.149 105.249V105.25Z" fill="white"/>
<path d="M383.956 111.079C384.884 109.94 385.832 108.819 386.804 107.717C387.732 106.664 388.844 105.649 389.433 104.354C389.705 103.753 389.043 103.257 388.51 103.555C387.266 104.249 386.363 105.494 385.466 106.568C384.524 107.697 383.605 108.844 382.707 110.006C382.065 110.838 383.282 111.903 383.956 111.077V111.079Z" fill="white"/>
<path d="M364.087 183.937C363.297 183.937 354.695 191.431 355.813 193.668C356.931 195.904 362.745 196.128 362.745 196.128C362.745 196.128 360.286 201.832 361.404 202.056C362.522 202.28 371.801 195.346 371.577 192.773C371.354 190.2 364.087 190.089 364.087 190.089C364.087 190.089 365.765 183.937 364.087 183.937Z" fill="#7BD2F6"/>
<path d="M377.491 218.452C374.709 219.038 371.989 219.783 369.3 220.661C369.202 221.393 369.106 222.123 369.017 222.844C371.957 222.019 374.954 221.329 377.952 220.787C379.806 220.453 381.668 220.192 383.533 219.928C383.665 219.081 383.795 218.228 383.919 217.382C381.764 217.606 379.623 218.001 377.491 218.45V218.452Z" fill="#3684A7"/>
<path d="M361.143 221.087C356.436 219.809 351.586 219.191 346.716 219.05C346.805 219.629 346.898 220.207 346.99 220.784C351.85 221.215 356.666 222.099 361.418 223.223C361.331 222.518 361.24 221.805 361.144 221.088L361.143 221.087Z" fill="#3684A7"/>
<path d="M388.568 212.6H340.832C336.623 212.6 332.913 210.159 332.582 207.12L327.674 162.079C327.223 157.948 330.982 154.494 336.037 154.494H393.361C398.415 154.494 402.174 157.948 401.724 162.079L396.815 207.12C396.484 210.159 392.774 212.6 388.565 212.6H388.568Z" fill="#C5D3D3"/>
<g style="mix-blend-mode:overlay">
<path d="M388.128 170.257H340.675C339.609 170.257 338.683 169.554 338.614 168.689L338.607 168.605C338.54 167.736 339.364 167.021 340.439 167.021H388.355C389.431 167.021 390.256 167.736 390.19 168.605L390.184 168.689C390.118 169.554 389.192 170.257 388.126 170.257H388.128Z" fill="#C0FAFC"/>
<path d="M387.495 179.222H341.324C340.287 179.222 339.388 178.556 339.322 177.737L339.315 177.658C339.251 176.835 340.055 176.159 341.101 176.159H387.708C388.755 176.159 389.559 176.835 389.497 177.658L389.49 177.737C389.428 178.554 388.529 179.222 387.491 179.222H387.495Z" fill="#C0FAFC"/>
<path d="M386.894 187.715H341.939C340.929 187.715 340.055 187.083 339.994 186.308L339.988 186.232C339.927 185.452 340.711 184.811 341.729 184.811H387.1C388.118 184.811 388.903 185.452 388.843 186.232L388.838 186.308C388.779 187.083 387.905 187.715 386.894 187.715Z" fill="#C0FAFC"/>
<path d="M386.324 195.772H342.522C341.539 195.772 340.686 195.172 340.629 194.437L340.624 194.365C340.567 193.625 341.33 193.018 342.324 193.018H386.519C387.511 193.018 388.277 193.626 388.22 194.365L388.215 194.437C388.16 195.174 387.307 195.772 386.324 195.772Z" fill="#C0FAFC"/>
<path d="M385.785 203.428H343.079C342.119 203.428 341.29 202.857 341.237 202.158L341.231 202.089C341.176 201.386 341.922 200.807 342.891 200.807H385.971C386.94 200.807 387.686 201.386 387.632 202.089L387.627 202.158C387.573 202.857 386.745 203.428 385.787 203.428H385.785Z" fill="#C0FAFC"/>
</g>
<path d="M319.645 194.756C308.011 184.087 322.49 169.356 329.758 171.855C337.027 174.354 334.025 207.942 319.645 194.756Z" fill="white"/>
<path d="M408.873 194.756C419.858 184.087 406.187 169.356 399.323 171.855C392.46 174.354 395.295 207.942 408.873 194.756Z" fill="white"/>
<path d="M288.665 79.2091C288.936 79.4866 289.201 79.7658 289.46 80.05C289.86 80.4872 290.415 80.684 290.966 80.3847C291.433 80.1307 291.775 79.4597 291.506 78.9384C289.139 74.3472 283.985 71.3672 278.908 70.9148C277.646 70.8021 276.901 72.1038 277.55 73.1582C279.776 76.7689 283.852 79.1789 288.093 79.3386C288.312 79.347 288.503 79.2983 288.665 79.2108V79.2091ZM285.858 76.7185C284.622 76.2879 283.466 75.6405 282.464 74.8047C283.187 75.0973 283.887 75.4437 284.556 75.8456C285.004 76.1147 285.437 76.4074 285.858 76.7202V76.7185Z" fill="#05BBC2"/>
<path d="M307.052 67.05C307.17 66.7338 307.18 66.3857 307.029 66.0746C306.773 65.5532 306.516 65.0319 306.261 64.5089C305.681 63.1366 304.926 61.8063 304.3 60.5215C303.953 59.8135 303.194 59.3813 302.411 59.6823C301.72 59.948 301.228 60.8578 301.572 61.5726C302.107 62.6842 302.646 63.7925 303.201 64.894C303.425 65.3363 303.641 65.7819 303.875 66.2142C304.025 66.5152 304.174 66.8162 304.322 67.1172C304.464 67.4031 304.672 67.6419 304.922 67.8068C304.991 67.8892 305.06 67.9733 305.134 68.0523C305.807 68.7738 307.274 68.4811 307.096 67.2938C307.084 67.2114 307.067 67.1307 307.052 67.05Z" fill="#05BBC2"/>
<path d="M296.961 96.0752C294.17 94.4102 290.867 93.8586 287.671 94.385C286.656 94.5515 286.195 95.8582 287.048 96.5393C289.226 98.2799 291.897 99.0047 294.624 98.3186C294.895 98.2496 295.064 98.0764 295.15 97.8628C295.443 97.9923 295.732 98.1286 296.016 98.2782C296.594 98.5793 297.342 98.2093 297.589 97.6493C297.878 96.9934 297.514 96.4048 296.961 96.0752Z" fill="#05BBC2"/>
<path d="M446.834 81.7817C451.075 81.622 455.149 79.2137 457.377 75.6014C458.027 74.5469 457.283 73.2452 456.019 73.3579C450.942 73.812 445.788 76.792 443.421 81.3815C443.152 81.9028 443.495 82.5738 443.961 82.8278C444.512 83.1271 445.067 82.9304 445.467 82.4931C445.726 82.2089 445.991 81.9297 446.262 81.6522C446.423 81.7397 446.615 81.7885 446.834 81.7801V81.7817ZM450.37 78.2888C451.039 77.8868 451.74 77.5404 452.463 77.2478C451.463 78.0836 450.307 78.7311 449.069 79.1616C449.49 78.8505 449.923 78.5562 450.37 78.2871V78.2888Z" fill="#05BBC2"/>
<path d="M427.876 69.495C427.758 69.1789 427.748 68.8308 427.899 68.5196C428.155 67.9983 428.412 67.477 428.668 66.9539C429.247 65.5816 430.002 64.2514 430.628 62.9665C430.976 62.2585 431.734 61.8263 432.517 62.1274C433.208 62.3931 433.7 63.3029 433.356 64.0176C432.821 65.1293 432.282 66.2375 431.727 67.3391C431.503 67.7814 431.287 68.227 431.053 68.6592C430.903 68.9603 430.754 69.2613 430.606 69.5623C430.465 69.8482 430.256 70.087 430.006 70.2518C429.937 70.3342 429.868 70.4183 429.794 70.4974C429.121 71.2188 427.654 70.9262 427.832 69.7389C427.844 69.6565 427.861 69.5758 427.876 69.495Z" fill="#05BBC2"/>
<path d="M437.967 98.5202C440.758 96.8553 444.061 96.3037 447.256 96.8301C448.272 96.9966 448.732 98.3033 447.88 98.9844C445.701 100.725 443.03 101.45 440.304 100.764C440.033 100.695 439.863 100.521 439.778 100.308C439.485 100.437 439.196 100.574 438.912 100.723C438.334 101.024 437.586 100.654 437.338 100.094C437.049 99.4385 437.414 98.8498 437.967 98.5202Z" fill="#05BBC2"/>
</g>
<defs>
<filter id="filter0_d_462_9874" x="12.6663" y="57.877" width="336.067" height="160.489" filterUnits="userSpaceOnUse" color-interpolation-filters="sRGB">
<feFlood flood-opacity="0" result="BackgroundImageFix"/>
<feColorMatrix in="SourceAlpha" type="matrix" values="0 0 0 0 0 0 0 0 0 0 0 0 0 0 0 0 0 0 127 0" result="hardAlpha"/>
<feOffset dy="2"/>
<feGaussianBlur stdDeviation="2"/>
<feComposite in2="hardAlpha" operator="out"/>
<feColorMatrix type="matrix" values="0 0 0 0 0.845833 0 0 0 0 0.845833 0 0 0 0 0.845833 0 0 0 0.25 0"/>
<feBlend mode="normal" in2="BackgroundImageFix" result="effect1_dropShadow_462_9874"/>
<feBlend mode="normal" in="SourceGraphic" in2="effect1_dropShadow_462_9874" result="shape"/>
</filter>
<filter id="filter1_d_462_9874" x="18.0361" y="95.463" width="112.165" height="59.5457" filterUnits="userSpaceOnUse" color-interpolation-filters="sRGB">
<feFlood flood-opacity="0" result="BackgroundImageFix"/>
<feColorMatrix in="SourceAlpha" type="matrix" values="0 0 0 0 0 0 0 0 0 0 0 0 0 0 0 0 0 0 127 0" result="hardAlpha"/>
<feOffset dy="2"/>
<feGaussianBlur stdDeviation="2"/>
<feComposite in2="hardAlpha" operator="out"/>
<feColorMatrix type="matrix" values="0 0 0 0 0.845833 0 0 0 0 0.845833 0 0 0 0 0.845833 0 0 0 0.25 0"/>
<feBlend mode="normal" in2="BackgroundImageFix" result="effect1_dropShadow_462_9874"/>
<feBlend mode="normal" in="SourceGraphic" in2="effect1_dropShadow_462_9874" result="shape"/>
</filter>
<filter id="filter2_d_462_9874" x="18.0361" y="150.766" width="112.165" height="59.5457" filterUnits="userSpaceOnUse" color-interpolation-filters="sRGB">
<feFlood flood-opacity="0" result="BackgroundImageFix"/>
<feColorMatrix in="SourceAlpha" type="matrix" values="0 0 0 0 0 0 0 0 0 0 0 0 0 0 0 0 0 0 127 0" result="hardAlpha"/>
<feOffset dy="2"/>
<feGaussianBlur stdDeviation="2"/>
<feComposite in2="hardAlpha" operator="out"/>
<feColorMatrix type="matrix" values="0 0 0 0 0.845833 0 0 0 0 0.845833 0 0 0 0 0.845833 0 0 0 0.25 0"/>
<feBlend mode="normal" in2="BackgroundImageFix" result="effect1_dropShadow_462_9874"/>
<feBlend mode="normal" in="SourceGraphic" in2="effect1_dropShadow_462_9874" result="shape"/>
</filter>
<filter id="filter3_d_462_9874" x="124.886" y="95.4621" width="112.165" height="59.5457" filterUnits="userSpaceOnUse" color-interpolation-filters="sRGB">
<feFlood flood-opacity="0" result="BackgroundImageFix"/>
<feColorMatrix in="SourceAlpha" type="matrix" values="0 0 0 0 0 0 0 0 0 0 0 0 0 0 0 0 0 0 127 0" result="hardAlpha"/>
<feOffset dy="2"/>
<feGaussianBlur stdDeviation="2"/>
<feComposite in2="hardAlpha" operator="out"/>
<feColorMatrix type="matrix" values="0 0 0 0 0.845833 0 0 0 0 0.845833 0 0 0 0 0.845833 0 0 0 0.25 0"/>
<feBlend mode="normal" in2="BackgroundImageFix" result="effect1_dropShadow_462_9874"/>
<feBlend mode="normal" in="SourceGraphic" in2="effect1_dropShadow_462_9874" result="shape"/>
</filter>
<filter id="filter4_d_462_9874" x="124.886" y="150.766" width="112.165" height="59.5457" filterUnits="userSpaceOnUse" color-interpolation-filters="sRGB">
<feFlood flood-opacity="0" result="BackgroundImageFix"/>
<feColorMatrix in="SourceAlpha" type="matrix" values="0 0 0 0 0 0 0 0 0 0 0 0 0 0 0 0 0 0 127 0" result="hardAlpha"/>
<feOffset dy="2"/>
<feGaussianBlur stdDeviation="2"/>
<feComposite in2="hardAlpha" operator="out"/>
<feColorMatrix type="matrix" values="0 0 0 0 0.845833 0 0 0 0 0.845833 0 0 0 0 0.845833 0 0 0 0.25 0"/>
<feBlend mode="normal" in2="BackgroundImageFix" result="effect1_dropShadow_462_9874"/>
<feBlend mode="normal" in="SourceGraphic" in2="effect1_dropShadow_462_9874" result="shape"/>
</filter>
<filter id="filter5_d_462_9874" x="231.736" y="95.4621" width="112.165" height="59.5457" filterUnits="userSpaceOnUse" color-interpolation-filters="sRGB">
<feFlood flood-opacity="0" result="BackgroundImageFix"/>
<feColorMatrix in="SourceAlpha" type="matrix" values="0 0 0 0 0 0 0 0 0 0 0 0 0 0 0 0 0 0 127 0" result="hardAlpha"/>
<feOffset dy="2"/>
<feGaussianBlur stdDeviation="2"/>
<feComposite in2="hardAlpha" operator="out"/>
<feColorMatrix type="matrix" values="0 0 0 0 0.845833 0 0 0 0 0.845833 0 0 0 0 0.845833 0 0 0 0.25 0"/>
<feBlend mode="normal" in2="BackgroundImageFix" result="effect1_dropShadow_462_9874"/>
<feBlend mode="normal" in="SourceGraphic" in2="effect1_dropShadow_462_9874" result="shape"/>
</filter>
<filter id="filter6_d_462_9874" x="231.736" y="150.766" width="112.165" height="59.5457" filterUnits="userSpaceOnUse" color-interpolation-filters="sRGB">
<feFlood flood-opacity="0" result="BackgroundImageFix"/>
<feColorMatrix in="SourceAlpha" type="matrix" values="0 0 0 0 0 0 0 0 0 0 0 0 0 0 0 0 0 0 127 0" result="hardAlpha"/>
<feOffset dy="2"/>
<feGaussianBlur stdDeviation="2"/>
<feComposite in2="hardAlpha" operator="out"/>
<feColorMatrix type="matrix" values="0 0 0 0 0.845833 0 0 0 0 0.845833 0 0 0 0 0.845833 0 0 0 0.25 0"/>
<feBlend mode="normal" in2="BackgroundImageFix" result="effect1_dropShadow_462_9874"/>
<feBlend mode="normal" in="SourceGraphic" in2="effect1_dropShadow_462_9874" result="shape"/>
</filter>
<filter id="filter7_d_462_9874" x="273.311" y="55.5852" width="188.306" height="184.89" filterUnits="userSpaceOnUse" color-interpolation-filters="sRGB">
<feFlood flood-opacity="0" result="BackgroundImageFix"/>
<feColorMatrix in="SourceAlpha" type="matrix" values="0 0 0 0 0 0 0 0 0 0 0 0 0 0 0 0 0 0 127 0" result="hardAlpha"/>
<feOffset/>
<feGaussianBlur stdDeviation="2"/>
<feComposite in2="hardAlpha" operator="out"/>
<feColorMatrix type="matrix" values="0 0 0 0 0 0 0 0 0 0 0 0 0 0 0 0 0 0 0.16 0"/>
<feBlend mode="normal" in2="BackgroundImageFix" result="effect1_dropShadow_462_9874"/>
<feBlend mode="normal" in="SourceGraphic" in2="effect1_dropShadow_462_9874" result="shape"/>
</filter>
</defs>
</svg>
