<svg width="24" height="18" viewBox="0 0 24 18" fill="none" xmlns="http://www.w3.org/2000/svg">
<path fill-rule="evenodd" clip-rule="evenodd" d="M7.21087 0H8.34008C8.59416 0.00102295 8.83755 0.101848 9.01722 0.280512C9.19689 0.459175 9.29828 0.701201 9.29931 0.953868V1.99321C9.80785 2.14436 10.294 2.36189 10.745 2.64013L11.5265 1.86305C11.616 1.7733 11.7225 1.70207 11.8399 1.65345C11.9572 1.60484 12.0831 1.57981 12.2102 1.57981C12.3374 1.57981 12.4632 1.60484 12.5806 1.65345C12.698 1.70207 12.8045 1.7733 12.894 1.86305L13.6755 2.6615C13.8546 2.84061 13.9552 3.08298 13.9552 3.33562C13.9552 3.58827 13.8546 3.83064 13.6755 4.00974L12.8413 4.84122C13.08 5.27526 13.2631 5.73734 13.3863 6.21665H14.5898C14.8442 6.21716 15.0881 6.31776 15.2682 6.49648C15.4483 6.6752 15.5499 6.91752 15.551 7.17052V8.2934C15.5499 8.5464 15.4483 8.78872 15.2682 8.96744C15.0881 9.14616 14.8442 9.24676 14.5898 9.24727H13.3746C13.2479 9.72167 13.0622 10.1785 12.8217 10.6072L13.6755 11.462C13.7657 11.551 13.8374 11.6569 13.8862 11.7736C13.9351 11.8903 13.9603 12.0155 13.9603 12.1419C13.9603 12.2683 13.9351 12.3935 13.8862 12.5102C13.8374 12.6269 13.7657 12.7328 13.6755 12.8218L12.8745 13.5989C12.7849 13.6887 12.6784 13.7599 12.5611 13.8085C12.4437 13.8571 12.3178 13.8822 12.1907 13.8822C12.0636 13.8822 11.9377 13.8571 11.8203 13.8085C11.703 13.7599 11.5965 13.6887 11.5069 13.5989L10.704 12.8005C10.2622 13.0713 9.78668 13.2836 9.28954 13.4319V14.512C9.28903 14.765 9.18787 15.0075 9.00814 15.1866C8.82842 15.3657 8.58473 15.4668 8.33031 15.4678H7.21087C6.95577 15.4668 6.7115 15.3652 6.53166 15.1852C6.35183 15.0053 6.25112 14.7618 6.25164 14.5081V13.5368C5.70583 13.4161 5.17974 13.2199 4.68873 12.954L4.03231 13.5989C3.85219 13.7771 3.60846 13.8771 3.35439 13.8771C3.10033 13.8771 2.8566 13.7771 2.67648 13.5989L1.87745 12.8024C1.78719 12.7134 1.71555 12.6075 1.66666 12.4908C1.61778 12.3741 1.59261 12.2489 1.59261 12.1225C1.59261 11.9961 1.61778 11.8709 1.66666 11.7542C1.71555 11.6375 1.78719 11.5316 1.87745 11.4425L2.47526 10.8481C2.16369 10.3516 1.92737 9.81222 1.7739 9.24727H0.959236C0.705147 9.24625 0.461759 9.14542 0.28209 8.96676C0.102421 8.7881 0.00102871 8.54607 0 8.2934L0 7.17052C0.00102871 6.91785 0.102421 6.67583 0.28209 6.49716C0.461759 6.3185 0.705147 6.21768 0.959236 6.21665H1.75827C1.90817 5.64256 2.14323 5.09388 2.45572 4.58867L1.86963 4.00586C1.69044 3.82675 1.58985 3.58438 1.58985 3.33174C1.58985 3.07909 1.69044 2.83672 1.86963 2.65762L2.67648 1.86694C2.8566 1.68875 3.10033 1.58873 3.35439 1.58873C3.60846 1.58873 3.85219 1.68875 4.03231 1.86694L4.66138 2.49249C5.15971 2.21657 5.69524 2.01311 6.25164 1.88831V0.953868C6.25267 0.701201 6.35406 0.459175 6.53373 0.280512C6.7134 0.101848 6.95679 0.00102295 7.21087 0ZM18.4033 9.23173L19.0421 9.11322C19.1861 9.08714 19.3347 9.11892 19.4552 9.20159C19.5756 9.28426 19.6583 9.41107 19.6848 9.55422L19.7943 10.137C20.0975 10.1699 20.3951 10.2424 20.6792 10.3527L21.0368 9.83397C21.1201 9.71448 21.2475 9.63256 21.3913 9.606C21.5351 9.57944 21.6836 9.6104 21.8045 9.69215L22.3398 10.0593C22.46 10.1422 22.5424 10.2689 22.5691 10.4119C22.5958 10.5549 22.5647 10.7025 22.4825 10.8228L22.0917 11.3804C22.274 11.6002 22.427 11.8424 22.5469 12.1011L23.2287 11.9748C23.3729 11.9492 23.5215 11.9812 23.6421 12.0637C23.7628 12.1463 23.8459 12.2728 23.8734 12.4158L23.9907 13.0511C24.0039 13.1219 24.003 13.1946 23.988 13.2651C23.973 13.3355 23.9442 13.4023 23.9032 13.4617C23.8622 13.5211 23.8098 13.5718 23.749 13.611C23.6883 13.6502 23.6204 13.6772 23.5491 13.6902L22.8595 13.8185C22.8383 14.1002 22.7818 14.3782 22.6915 14.646L23.26 15.0346C23.3807 15.1175 23.4635 15.2446 23.4902 15.388C23.5169 15.5315 23.4854 15.6796 23.4026 15.8L23.0353 16.3323C22.952 16.4519 22.8244 16.5338 22.6805 16.56C22.5366 16.5862 22.3881 16.5546 22.2676 16.4722L21.7284 16.105C21.5065 16.3042 21.2595 16.474 20.9938 16.6101L21.1071 17.2221C21.1216 17.2933 21.1219 17.3666 21.1078 17.4379C21.0937 17.5092 21.0657 17.577 21.0252 17.6374C20.9847 17.6979 20.9326 17.7498 20.8719 17.7902C20.8112 17.8306 20.7431 17.8587 20.6714 17.8729L20.0326 17.9914C19.8884 18.017 19.7399 17.985 19.6192 17.9025C19.4985 17.8199 19.4154 17.6934 19.3879 17.5504L19.2863 16.9967C18.964 16.9852 18.645 16.9283 18.3388 16.8277L18.036 17.2648C17.9526 17.3843 17.8252 17.4662 17.6814 17.4928C17.5376 17.5193 17.3891 17.4884 17.2682 17.4066L16.7329 17.0395C16.6127 16.9566 16.5304 16.8299 16.5037 16.6869C16.4769 16.5439 16.5081 16.3962 16.5903 16.276L16.8657 15.8874C16.6365 15.6368 16.4456 15.3541 16.2992 15.0482L15.8381 15.1317C15.7669 15.1449 15.6938 15.144 15.623 15.1291C15.5521 15.1142 15.4849 15.0855 15.4252 15.0447C15.3655 15.0039 15.3145 14.9519 15.2751 14.8915C15.2356 14.831 15.2085 14.7635 15.1954 14.6927L15.0762 14.0574C15.0612 13.9855 15.0609 13.9114 15.0752 13.8393C15.0895 13.7673 15.1181 13.6988 15.1595 13.638C15.2008 13.5771 15.254 13.5251 15.3158 13.4851C15.3777 13.445 15.447 13.4177 15.5197 13.4047L15.9729 13.3192C15.9978 12.979 16.0735 12.6444 16.1976 12.3265L15.8069 12.0603C15.6866 11.9771 15.6042 11.85 15.5775 11.7067C15.5508 11.5634 15.582 11.4155 15.6643 11.2949L16.0335 10.7626C16.1165 10.6427 16.244 10.5604 16.3879 10.5338C16.5318 10.5072 16.6805 10.5385 16.8013 10.6208L17.2213 10.9083C17.4747 10.7 17.7569 10.5292 18.0594 10.4012L17.9598 9.87088C17.9341 9.72773 17.9663 9.58028 18.0493 9.46059C18.1324 9.3409 18.2596 9.25865 18.4033 9.23173ZM19.2336 11.9165C19.5581 11.857 19.8931 11.8945 20.1963 12.0241C20.4995 12.1537 20.7572 12.3697 20.9371 12.6449C21.1169 12.9201 21.2107 13.2421 21.2067 13.5702C21.2027 13.8983 21.101 14.218 20.9145 14.4887C20.728 14.7594 20.4651 14.9692 20.1588 15.0914C19.8525 15.2137 19.5167 15.243 19.1937 15.1757C18.8707 15.1083 18.575 14.9474 18.344 14.7131C18.1129 14.4788 17.9568 14.1817 17.8953 13.8593C17.8543 13.6443 17.8565 13.4233 17.9017 13.2092C17.9468 12.995 18.0341 12.7919 18.1584 12.6113C18.2828 12.4308 18.4418 12.2765 18.6263 12.1573C18.8108 12.038 19.0172 11.9562 19.2336 11.9165ZM7.77548 4.85676C8.3501 4.85484 8.91235 5.02265 9.39093 5.33891C9.86952 5.65517 10.2429 6.10563 10.4637 6.63317C10.6845 7.16072 10.7427 7.74158 10.6311 8.3021C10.5195 8.86262 10.243 9.37756 9.83665 9.7816C9.43033 10.1856 8.9125 10.4606 8.34882 10.5716C7.78515 10.6826 7.20101 10.6247 6.6705 10.4051C6.13999 10.1856 5.68699 9.81429 5.36895 9.33838C5.05091 8.86247 4.88216 8.30337 4.88409 7.73196C4.88616 6.97004 5.19144 6.23991 5.73324 5.70115C6.27503 5.16239 7.00927 4.85881 7.77548 4.85676Z" fill="#344054"/>
</svg>
