<svg width="24" height="24" viewBox="0 0 24 24" fill="none" xmlns="http://www.w3.org/2000/svg">
<path fill-rule="evenodd" clip-rule="evenodd" d="M13.6261 5.10979L12.1123 6.62359L10.5516 8.20379L8.24481 10.5106L6.6646 12.0713L5.19183 13.5441C4.91837 13.8175 4.47302 13.8175 4.19956 13.5441L3.62334 12.9679C3.34988 12.6944 3.34988 12.249 3.62334 11.9756L12.0576 3.5413C12.3311 3.26784 12.7764 3.26784 13.0499 3.5413L13.6261 4.11752C13.8996 4.39098 13.8996 4.83633 13.6261 5.10979ZM9.44413 5.26019L5.26019 9.44608L4.63905 8.82494L8.82298 4.641L9.44413 5.26019ZM10.3758 18.8101L11.8896 17.2963L8.84447 14.2512C8.41279 13.8195 8.41279 13.1124 8.84447 12.6807C9.27614 12.249 9.98323 12.249 10.4149 12.6807L13.4503 15.7161L15.7571 13.4093L12.7217 10.3739C12.2901 9.94221 12.2901 9.23513 12.7217 8.80345C13.1534 8.37177 13.8605 8.37177 14.2922 8.80345L17.3373 11.8486L18.8101 10.3758C19.0836 10.1024 19.5289 10.1024 19.8024 10.3758L20.3786 10.9521C20.6521 11.2255 20.6521 11.6709 20.3786 11.9443L11.9443 20.3786C11.6709 20.6521 11.2255 20.6521 10.9521 20.3786L10.3758 19.8024C10.1024 19.5309 10.1024 19.0836 10.3758 18.8101ZM14.5481 18.65L18.732 14.466L19.3531 15.0872L15.1692 19.2711L14.5481 18.65ZM12.333 19.988L13.5441 21.2009C15.6517 23.3085 17.6186 23.4042 20.0251 21.5154L22.4296 23.9199L24 22.3495L21.576 19.9254C23.4961 17.5952 23.205 15.386 21.1638 13.3448L20.07 12.251L12.333 19.988ZM11.6689 3.93196L10.4579 2.71897C8.35029 0.611378 6.38138 0.515667 3.97689 2.40449L1.57044 0L0 1.57044L2.42403 3.99447C0.503947 6.32473 0.794987 8.5339 2.83617 10.5751L3.93001 11.6689L11.6689 3.93196Z" fill="#344054"/>
</svg>
