<svg width="89" height="70" viewBox="0 0 89 70" fill="none" xmlns="http://www.w3.org/2000/svg">
<g filter="url(#filter0_d_555_13413)">
<path fill-rule="evenodd" clip-rule="evenodd" d="M8.92408 0H79.0994C81.8062 0 84.0156 2.20932 84.0156 4.91614V31.2388C82.9537 30.202 81.7877 29.2774 80.5363 28.4796V24.2405H7.48723V51.4057C7.48723 52.5437 8.42659 53.4815 9.56304 53.4815H48.7157C49.1289 54.6942 49.6487 55.8577 50.2622 56.9623H8.92408C6.21727 56.9623 4 54.7546 4 52.0462V4.92408C4 2.20932 6.20932 0 8.92408 0ZM16.4103 46.178C15.2787 46.178 14.3616 45.2609 14.3616 44.1292C14.3616 42.9991 15.2787 42.0804 16.4103 42.0804H35.0513C36.183 42.0804 37.1001 42.9991 37.1001 44.1292C37.1001 45.2609 36.183 46.178 35.0513 46.178H16.4103ZM16.4103 36.3441C15.2787 36.3441 14.3616 35.4254 14.3616 34.2953C14.3616 33.1637 15.2787 32.2465 16.4103 32.2465H21.9861C23.1178 32.2465 24.0349 33.1637 24.0349 34.2953C24.0349 35.4254 23.1178 36.3441 21.9861 36.3441H16.4103ZM28.1881 36.3441C27.0564 36.3441 26.1393 35.4254 26.1393 34.2953C26.1393 33.1637 27.0564 32.2465 28.1881 32.2465H32.2491C33.3808 32.2465 34.2979 33.1637 34.2979 34.2953C34.2979 35.4254 33.3808 36.3441 32.2491 36.3441H28.1881ZM38.7896 36.3441C37.658 36.3441 36.7409 35.4254 36.7409 34.2953C36.7409 33.1637 37.658 32.2465 38.7896 32.2465H42.83C43.9601 32.2465 44.8788 33.1637 44.8788 34.2953C44.8788 35.4254 43.9601 36.3441 42.83 36.3441H38.7896ZM7.48723 10.991H80.5283V5.56304C80.5283 4.42659 79.589 3.48723 78.4525 3.48723H9.56304C8.42659 3.48723 7.48723 4.42659 7.48723 5.56304V10.991Z" fill="#344054"/>
<path fill-rule="evenodd" clip-rule="evenodd" d="M68.3724 30.0405C72.673 30.0405 76.5677 31.7844 79.3867 34.6027C82.2051 37.4205 83.9489 41.3158 83.9489 45.617C83.9489 49.9182 82.2051 53.8123 79.3867 56.6313C76.5677 59.4497 72.673 61.1935 68.3724 61.1935C64.0712 61.1935 60.1759 59.4497 57.3581 56.6313C54.5397 53.8123 52.7959 49.9176 52.7959 45.617C52.7959 41.3158 54.5397 37.4217 57.3581 34.6027C60.1759 31.7844 64.0712 30.0405 68.3724 30.0405ZM75.8242 45.617C75.8242 46.5644 75.0472 47.3396 74.1016 47.3396H70.0956V51.3457C70.0956 52.293 69.3192 53.0682 68.3724 53.0682C67.425 53.0682 66.6493 52.2912 66.6493 51.3457V47.3396H62.6438C61.6976 47.3396 60.9206 46.5632 60.9206 45.617C60.9206 44.6703 61.6958 43.8939 62.6438 43.8939H66.6493V39.8878C66.6493 38.9416 67.4263 38.1646 68.3724 38.1646C69.3192 38.1646 70.0956 38.9398 70.0956 39.8878V43.8939H74.1016C75.049 43.8939 75.8242 44.6697 75.8242 45.617Z" fill="#344054"/>
</g>
<defs>
<filter id="filter0_d_555_13413" x="0" y="0" width="88.0156" height="69.1935" filterUnits="userSpaceOnUse" color-interpolation-filters="sRGB">
<feFlood flood-opacity="0" result="BackgroundImageFix"/>
<feColorMatrix in="SourceAlpha" type="matrix" values="0 0 0 0 0 0 0 0 0 0 0 0 0 0 0 0 0 0 127 0" result="hardAlpha"/>
<feOffset dy="4"/>
<feGaussianBlur stdDeviation="2"/>
<feComposite in2="hardAlpha" operator="out"/>
<feColorMatrix type="matrix" values="0 0 0 0 0 0 0 0 0 0 0 0 0 0 0 0 0 0 0.25 0"/>
<feBlend mode="normal" in2="BackgroundImageFix" result="effect1_dropShadow_555_13413"/>
<feBlend mode="normal" in="SourceGraphic" in2="effect1_dropShadow_555_13413" result="shape"/>
</filter>
</defs>
</svg>
