<svg width="51" height="37" viewBox="0 0 51 37" fill="none" xmlns="http://www.w3.org/2000/svg">
<path d="M45.6357 19.7457C45.6357 30.6509 36.7767 36.0844 25.3959 36.0844C14.0151 36.0844 4.42188 30.6509 4.42188 19.7457C4.42188 8.84043 13.6477 0.000244141 25.029 0.000244141C36.4104 0.000244141 45.6362 8.84043 45.6362 19.7457H45.6357Z" fill="white"/>
<path d="M42.5318 19.8103C42.5318 29.1841 34.917 33.8542 25.1345 33.8542C15.352 33.8542 7.10645 29.1836 7.10645 19.8103C7.10645 10.4371 15.0367 2.83813 24.8191 2.83813C34.6016 2.83813 42.5318 10.4371 42.5318 19.8103Z" fill="#008EB8"/>
<path d="M41.4319 20.48C41.4319 29.2713 34.29 33.6523 25.1146 33.6523C15.9392 33.6523 8.20557 29.2719 8.20557 20.48C8.20557 11.6882 15.6433 4.5614 24.8187 4.5614C33.9941 4.5614 41.4319 11.6882 41.4319 20.48Z" fill="#05BBC2"/>
<path d="M5.67975 25.9615C5.88946 25.227 5.8369 13.846 5.57463 13.479C5.31235 13.1121 0.855255 14.9474 0.226113 15.839C-0.40303 16.7307 0.383277 24.7554 1.32725 25.4894C2.27123 26.2238 5.67921 25.9615 5.67921 25.9615H5.67975Z" fill="#05BBC2"/>
<path d="M44.4379 25.9615C44.2282 25.227 44.2808 13.846 44.5431 13.479C44.8053 13.1121 49.2625 14.9474 49.8916 15.839C50.5207 16.7307 49.7344 24.7554 48.7905 25.4894C47.8465 26.2238 44.4385 25.9615 44.4385 25.9615H44.4379Z" fill="#05BBC2"/>
<path d="M19.2454 18.8559C19.2454 21.9988 17.7806 22.8683 15.9731 22.8683C14.1655 22.8683 12.7007 21.9988 12.7007 18.8559C12.7007 15.7131 14.1655 13.1654 15.9731 13.1654C17.7806 13.1654 19.2454 15.7131 19.2454 18.8559Z" fill="white"/>
<path d="M36.9877 18.8559C36.9877 21.9988 35.5228 22.8683 33.7152 22.8683C31.9077 22.8683 30.4429 21.9988 30.4429 18.8559C30.4429 15.7131 31.9077 13.1654 33.7152 13.1654C35.5228 13.1654 36.9877 15.7131 36.9877 18.8559Z" fill="white"/>
<path d="M21.9346 22.7101C22.2121 22.606 27.2831 22.0282 27.7551 22.238C28.2271 22.4478 27.5979 26.9585 24.7665 27.3255C21.9351 27.6925 21.5157 22.8673 21.9351 22.7101H21.9346Z" fill="white"/>
<mask id="path-9-inside-1_555_10273" fill="white">
<path fill-rule="evenodd" clip-rule="evenodd" d="M25.396 36.0841C34.3546 36.0841 41.7506 32.7174 44.493 25.9651C44.9337 25.9949 47.9169 26.1688 48.7904 25.4892C49.7343 24.7553 50.5206 16.7305 49.8915 15.8388C49.2775 14.9686 45.0169 13.1994 44.569 13.4562C41.8281 5.6346 34.1156 0 25.0291 0C15.9497 0 8.2421 5.62584 5.49568 13.4379C4.83795 13.3091 0.820971 14.9958 0.226113 15.8388C-0.40303 16.7305 0.383277 24.7553 1.32725 25.4892C2.21959 26.1834 5.31372 25.987 5.64957 25.9634C8.58503 32.7168 16.4366 36.0841 25.396 36.0841Z"/>
</mask>
<path d="M44.493 25.9651L44.5065 25.7656L44.3621 25.7559L44.3077 25.8899L44.493 25.9651ZM48.7904 25.4892L48.6676 25.3313L48.6675 25.3313L48.7904 25.4892ZM49.8915 15.8388L50.0549 15.7235L49.8915 15.8388ZM44.569 13.4562L44.3802 13.5223L44.4598 13.7493L44.6684 13.6297L44.569 13.4562ZM5.49568 13.4379L5.45722 13.6342L5.62698 13.6675L5.68436 13.5043L5.49568 13.4379ZM0.226113 15.8388L0.0626976 15.7235H0.0626976L0.226113 15.8388ZM1.32725 25.4892L1.45007 25.3313L1.45001 25.3313L1.32725 25.4892ZM5.64957 25.9634L5.83299 25.8837L5.77662 25.754L5.63557 25.7639L5.64957 25.9634ZM44.3077 25.8899C41.6093 32.5338 34.3157 35.8841 25.396 35.8841V36.2841C34.3934 36.2841 41.8919 32.9009 44.6783 26.0404L44.3077 25.8899ZM48.6675 25.3313C48.4882 25.4709 48.1773 25.5805 47.7746 25.658C47.3787 25.7342 46.9211 25.7747 46.4711 25.7933C45.5717 25.8307 44.724 25.7803 44.5065 25.7656L44.4795 26.1647C44.7026 26.1798 45.5669 26.2312 46.4877 26.193C46.9478 26.1739 47.4272 26.1322 47.8502 26.0508C48.2663 25.9707 48.6558 25.8473 48.9132 25.647L48.6675 25.3313ZM49.7281 15.9541C49.7472 15.9812 49.7736 16.0381 49.7998 16.1373C49.8252 16.2332 49.8472 16.3557 49.865 16.5033C49.9005 16.7984 49.9176 17.1791 49.9176 17.6197C49.9176 18.4999 49.8494 19.6022 49.732 20.7019C49.6145 21.8019 49.4484 22.8935 49.2541 23.753C49.1568 24.1832 49.0535 24.5503 48.9475 24.8294C48.8945 24.969 48.8424 25.0826 48.7921 25.1695C48.7405 25.2587 48.6975 25.308 48.6676 25.3313L48.9131 25.6471C49.0012 25.5786 49.075 25.4792 49.1383 25.3698C49.2029 25.2581 49.2639 25.1232 49.3215 24.9713C49.4368 24.6676 49.5449 24.2804 49.6442 23.8412C49.8431 22.9618 50.0112 21.8538 50.1297 20.7444C50.2482 19.6347 50.3176 18.5178 50.3176 17.6197C50.3176 17.171 50.3003 16.7728 50.2621 16.4555C50.243 16.2969 50.2183 16.1548 50.1865 16.0349C50.1556 15.9182 50.1144 15.8079 50.0549 15.7235L49.7281 15.9541ZM44.6684 13.6297C44.6518 13.6392 44.6533 13.6318 44.6992 13.631C44.7392 13.6304 44.7956 13.6349 44.8697 13.6467C45.0174 13.6701 45.2131 13.7187 45.4451 13.7891C45.9078 13.9296 46.4942 14.1509 47.0884 14.4084C47.6825 14.6658 48.2795 14.9571 48.7639 15.2365C49.0062 15.3763 49.2176 15.5115 49.3854 15.6365C49.5564 15.7638 49.6698 15.8715 49.7281 15.9541L50.0549 15.7235C49.9597 15.5886 49.8056 15.4507 49.6243 15.3157C49.4399 15.1783 49.2142 15.0345 48.9637 14.8901C48.4626 14.601 47.8512 14.3029 47.2474 14.0414C46.6438 13.7798 46.0427 13.5526 45.5613 13.4064C45.3213 13.3335 45.1059 13.2792 44.9325 13.2516C44.846 13.2379 44.7644 13.2299 44.6925 13.2311C44.6264 13.2322 44.5421 13.241 44.4695 13.2827L44.6684 13.6297ZM25.0291 0.2C34.0325 0.2 41.6681 5.7827 44.3802 13.5223L44.7577 13.39C41.9882 5.4865 34.1986 -0.2 25.0291 -0.2V0.2ZM5.68436 13.5043C8.402 5.77403 16.0327 0.2 25.0291 0.2V-0.2C15.8667 -0.2 8.0822 5.47766 5.307 13.3716L5.68436 13.5043ZM0.389528 15.9541C0.445866 15.8743 0.553975 15.7706 0.716663 15.6481C0.876441 15.5278 1.07762 15.3976 1.30877 15.2626C1.77091 14.9929 2.34216 14.7104 2.91789 14.457C3.49355 14.2036 4.06926 13.9812 4.53947 13.8306C4.77487 13.7553 4.98052 13.699 5.14473 13.6655C5.3182 13.6302 5.41787 13.6265 5.45722 13.6342L5.53413 13.2417C5.40905 13.2172 5.23931 13.238 5.06489 13.2736C4.8812 13.311 4.66047 13.3719 4.41749 13.4497C3.93095 13.6055 3.34191 13.8333 2.75675 14.0909C2.17166 14.3484 1.58603 14.6376 1.10712 14.9172C0.867755 15.0569 0.65237 15.1958 0.476041 15.3286C0.302621 15.4592 0.155075 15.5926 0.0626976 15.7235L0.389528 15.9541ZM1.45001 25.3313C1.42013 25.308 1.37714 25.2587 1.32552 25.1695C1.27524 25.0826 1.22307 24.969 1.17009 24.8294C1.06414 24.5503 0.96086 24.1832 0.863561 23.753C0.669182 22.8935 0.503091 21.8019 0.385633 20.7019C0.268197 19.6022 0.199993 18.4999 0.2 17.6197C0.200004 17.1791 0.21711 16.7984 0.252643 16.5033C0.270418 16.3557 0.29237 16.2332 0.31777 16.1373C0.344024 16.0381 0.370405 15.9812 0.389528 15.9541L0.0626976 15.7235C0.00317846 15.8079 -0.0380255 15.9182 -0.0689123 16.0349C-0.100653 16.1548 -0.125397 16.2969 -0.144489 16.4555C-0.18269 16.7728 -0.199996 17.171 -0.2 17.6197C-0.200007 18.5178 -0.1306 19.6347 -0.0121056 20.7444C0.106368 21.8538 0.274528 22.9618 0.473414 23.8412C0.572747 24.2804 0.680849 24.6676 0.796127 24.9713C0.853761 25.1232 0.914668 25.2581 0.979301 25.3698C1.04261 25.4792 1.11638 25.5786 1.20449 25.6471L1.45001 25.3313ZM5.63557 25.7639C5.47036 25.7755 4.62109 25.83 3.70458 25.7956C3.24604 25.7785 2.77596 25.7392 2.36867 25.6629C1.95417 25.5852 1.63357 25.4741 1.45007 25.3313L1.20444 25.647C1.46711 25.8514 1.8679 25.976 2.29501 26.0561C2.72934 26.1374 3.2211 26.1778 3.68961 26.1954C4.62721 26.2305 5.49294 26.1749 5.66357 26.1629L5.63557 25.7639ZM25.396 35.8841C16.4724 35.8841 8.72229 32.5309 5.83299 25.8837L5.46615 26.0432C8.44777 32.9027 16.4008 36.2841 25.396 36.2841V35.8841Z" fill="black" mask="url(#path-9-inside-1_555_10273)"/>
</svg>
