<svg xmlns="http://www.w3.org/2000/svg" xmlns:xlink="http://www.w3.org/1999/xlink" width="500" zoomAndPan="magnify" viewBox="0 0 375 374.999991" height="500" preserveAspectRatio="xMidYMid meet" version="1.0"><defs><g/><clipPath id="f5a7523388"><path d="M 37.5 147.664062 L 114.835938 147.664062 L 114.835938 225 L 37.5 225 Z M 37.5 147.664062 " clip-rule="nonzero"/></clipPath></defs><g fill="#000000" fill-opacity="1"><g transform="translate(132.22627, 202.710675)"><g><path d="M 3.4375 11.96875 L 3.4375 -32.40625 L 12.578125 -32.40625 L 12.578125 -28.546875 C 13.523438 -29.929688 14.742188 -31.019531 16.234375 -31.8125 C 17.722656 -32.613281 19.59375 -33.015625 21.84375 -33.015625 C 24.132812 -33.015625 26.234375 -32.59375 28.140625 -31.75 C 30.046875 -30.914062 31.679688 -29.742188 33.046875 -28.234375 C 34.421875 -26.722656 35.484375 -24.941406 36.234375 -22.890625 C 36.992188 -20.847656 37.375 -18.597656 37.375 -16.140625 C 37.375 -13.722656 36.992188 -11.492188 36.234375 -9.453125 C 35.484375 -7.410156 34.429688 -5.648438 33.078125 -4.171875 C 31.734375 -2.703125 30.109375 -1.546875 28.203125 -0.703125 C 26.296875 0.128906 24.195312 0.546875 21.90625 0.546875 C 19.613281 0.546875 17.722656 0.160156 16.234375 -0.609375 C 14.742188 -1.390625 13.523438 -2.457031 12.578125 -3.8125 L 12.578125 11.96875 Z M 12.578125 -17.3125 L 12.578125 -15.03125 C 12.703125 -14.132812 12.96875 -13.273438 13.375 -12.453125 C 13.789062 -11.640625 14.332031 -10.945312 15 -10.375 C 15.675781 -9.800781 16.453125 -9.335938 17.328125 -8.984375 C 18.210938 -8.640625 19.1875 -8.46875 20.25 -8.46875 C 21.4375 -8.46875 22.5 -8.671875 23.4375 -9.078125 C 24.382812 -9.492188 25.1875 -10.046875 25.84375 -10.734375 C 26.5 -11.429688 27.007812 -12.25 27.375 -13.1875 C 27.738281 -14.132812 27.921875 -15.117188 27.921875 -16.140625 C 27.921875 -17.203125 27.742188 -18.210938 27.390625 -19.171875 C 27.046875 -20.140625 26.535156 -20.976562 25.859375 -21.6875 C 25.191406 -22.40625 24.382812 -22.96875 23.4375 -23.375 C 22.5 -23.789062 21.4375 -24 20.25 -24 C 18.125 -24 16.363281 -23.351562 14.96875 -22.0625 C 13.582031 -20.769531 12.785156 -19.1875 12.578125 -17.3125 Z M 12.578125 -17.3125 "/></g></g></g><g fill="#000000" fill-opacity="1"><g transform="translate(171.322552, 202.710675)"><g><path d="M 3.4375 -44.1875 L 12.578125 -44.1875 L 12.578125 0 L 3.4375 0 Z M 3.4375 -44.1875 "/></g></g></g><g fill="#000000" fill-opacity="1"><g transform="translate(187.341593, 202.710675)"><g><path d="M 35.65625 0 L 26.515625 0 L 26.515625 -3.8125 C 25.578125 -2.457031 24.359375 -1.390625 22.859375 -0.609375 C 21.367188 0.160156 19.476562 0.546875 17.1875 0.546875 C 14.894531 0.546875 12.796875 0.128906 10.890625 -0.703125 C 8.992188 -1.546875 7.367188 -2.703125 6.015625 -4.171875 C 4.660156 -5.648438 3.601562 -7.410156 2.84375 -9.453125 C 2.09375 -11.492188 1.71875 -13.722656 1.71875 -16.140625 C 1.71875 -18.597656 2.09375 -20.847656 2.84375 -22.890625 C 3.601562 -24.941406 4.664062 -26.722656 6.03125 -28.234375 C 7.40625 -29.742188 9.046875 -30.914062 10.953125 -31.75 C 12.859375 -32.59375 14.9375 -33.015625 17.1875 -33.015625 C 19.476562 -33.015625 21.367188 -32.613281 22.859375 -31.8125 C 24.359375 -31.019531 25.578125 -29.929688 26.515625 -28.546875 L 26.515625 -32.40625 L 35.65625 -32.40625 Z M 26.515625 -17.3125 C 26.304688 -19.1875 25.503906 -20.769531 24.109375 -22.0625 C 22.722656 -23.351562 20.96875 -24 18.84375 -24 C 17.65625 -24 16.585938 -23.789062 15.640625 -23.375 C 14.703125 -22.96875 13.894531 -22.40625 13.21875 -21.6875 C 12.550781 -20.976562 12.039062 -20.140625 11.6875 -19.171875 C 11.34375 -18.210938 11.171875 -17.203125 11.171875 -16.140625 C 11.171875 -15.117188 11.351562 -14.132812 11.71875 -13.1875 C 12.09375 -12.25 12.601562 -11.429688 13.25 -10.734375 C 13.90625 -10.046875 14.710938 -9.492188 15.671875 -9.078125 C 16.640625 -8.671875 17.695312 -8.46875 18.84375 -8.46875 C 19.90625 -8.46875 20.875 -8.640625 21.75 -8.984375 C 22.632812 -9.335938 23.414062 -9.800781 24.09375 -10.375 C 24.769531 -10.945312 25.3125 -11.640625 25.71875 -12.453125 C 26.125 -13.273438 26.390625 -14.132812 26.515625 -15.03125 Z M 26.515625 -17.3125 "/></g></g></g><g fill="#000000" fill-opacity="1"><g transform="translate(226.437875, 202.710675)"><g><path d="M 3.4375 -32.40625 L 12.578125 -32.40625 L 12.578125 -27.6875 C 13.765625 -29.363281 15.226562 -30.671875 16.96875 -31.609375 C 18.707031 -32.546875 20.679688 -33.015625 22.890625 -33.015625 C 24.609375 -33.015625 26.160156 -32.71875 27.546875 -32.125 C 28.941406 -31.53125 30.117188 -30.710938 31.078125 -29.671875 C 32.046875 -28.628906 32.796875 -27.378906 33.328125 -25.921875 C 33.859375 -24.472656 34.125 -22.867188 34.125 -21.109375 L 34.125 0 L 24.984375 0 L 24.984375 -17.921875 C 24.984375 -19.765625 24.457031 -21.226562 23.40625 -22.3125 C 22.363281 -23.394531 21.046875 -23.9375 19.453125 -23.9375 C 18.429688 -23.9375 17.507812 -23.71875 16.6875 -23.28125 C 15.875 -22.851562 15.160156 -22.28125 14.546875 -21.5625 C 13.929688 -20.851562 13.457031 -20.035156 13.125 -19.109375 C 12.800781 -18.191406 12.617188 -17.222656 12.578125 -16.203125 L 12.578125 0 L 3.4375 0 Z M 3.4375 -32.40625 "/></g></g></g><g fill="#000000" fill-opacity="1"><g transform="translate(263.999779, 202.710675)"><g><path d="M 3.4375 -32.40625 L 12.578125 -32.40625 L 12.578125 -27.6875 C 13.765625 -29.363281 15.226562 -30.671875 16.96875 -31.609375 C 18.707031 -32.546875 20.679688 -33.015625 22.890625 -33.015625 C 24.609375 -33.015625 26.160156 -32.71875 27.546875 -32.125 C 28.941406 -31.53125 30.117188 -30.710938 31.078125 -29.671875 C 32.046875 -28.628906 32.796875 -27.378906 33.328125 -25.921875 C 33.859375 -24.472656 34.125 -22.867188 34.125 -21.109375 L 34.125 0 L 24.984375 0 L 24.984375 -17.921875 C 24.984375 -19.765625 24.457031 -21.226562 23.40625 -22.3125 C 22.363281 -23.394531 21.046875 -23.9375 19.453125 -23.9375 C 18.429688 -23.9375 17.507812 -23.71875 16.6875 -23.28125 C 15.875 -22.851562 15.160156 -22.28125 14.546875 -21.5625 C 13.929688 -20.851562 13.457031 -20.035156 13.125 -19.109375 C 12.800781 -18.191406 12.617188 -17.222656 12.578125 -16.203125 L 12.578125 0 L 3.4375 0 Z M 3.4375 -32.40625 "/></g></g></g><g fill="#000000" fill-opacity="1"><g transform="translate(301.561682, 202.710675)"><g><path d="M 3.4375 -32.40625 L 12.578125 -32.40625 L 12.578125 -26.578125 C 13.929688 -28.742188 15.640625 -30.359375 17.703125 -31.421875 C 19.773438 -32.484375 21.992188 -33.015625 24.359375 -33.015625 L 24.359375 -23.390625 C 24.203125 -23.390625 24.0625 -23.390625 23.9375 -23.390625 C 22.625 -23.390625 21.3125 -23.210938 20 -22.859375 C 18.695312 -22.515625 17.515625 -21.953125 16.453125 -21.171875 C 15.390625 -20.398438 14.507812 -19.445312 13.8125 -18.3125 C 13.113281 -17.1875 12.703125 -15.867188 12.578125 -14.359375 L 12.578125 0 L 3.4375 0 Z M 3.4375 -32.40625 "/></g></g></g><g fill="#000000" fill-opacity="1"><g transform="translate(327.016123, 202.710675)"><g/></g></g><g fill="#000000" fill-opacity="1"><g transform="translate(342.360029, 202.710675)"><g/></g></g><g fill="#000000" fill-opacity="1"><g transform="translate(357.703935, 202.710675)"><g/></g></g><g clip-path="url(#f5a7523388)"><path fill="#00c4cc" d="M 37.5 147.664062 L 84.21875 147.664062 L 99.535156 162.964844 L 52.804688 162.964844 L 52.804688 209.695312 L 37.5 194.378906 Z M 67.386719 177.550781 L 84.949219 177.550781 L 84.949219 195.113281 L 67.386719 195.113281 Z M 68.121094 209.695312 L 99.535156 209.695312 L 99.535156 162.964844 L 114.835938 178.28125 L 114.835938 225 L 68.121094 225 Z M 68.121094 209.695312 " fill-opacity="1" fill-rule="evenodd"/></g></svg>