<svg width="25" height="23" viewBox="0 0 25 23" fill="none" xmlns="http://www.w3.org/2000/svg">
<path d="M4.49804 11.4581C4.3623 11.7308 4.02148 11.846 3.73827 11.7153C3.45458 11.5846 3.33544 11.2583 3.4707 10.9837C3.77099 10.3781 4.14062 9.81065 4.56786 9.28829C4.99755 8.76433 5.48584 8.28753 6.02392 7.86649C6.26855 7.67466 6.62792 7.7104 6.82519 7.94548C7.02441 8.18104 6.9873 8.52708 6.74316 8.71656C6.26855 9.08894 5.83691 9.50786 5.46142 9.96675C5.08544 10.4275 4.76269 10.9264 4.49804 11.4581ZM5.45409 17.8891C5.28808 17.749 5.11376 17.599 5.02636 17.4975L5.02148 17.5008C4.81786 17.6348 4.56591 17.7246 4.22167 17.7236C3.87402 17.7232 3.58691 17.6221 3.32763 17.4133C3.22753 17.5323 3.01073 17.7095 2.8164 17.868L2.77441 17.9018C2.74364 18.9649 5.13232 19.2865 5.45409 17.8891ZM5.16699 17.3912C5.24902 17.4871 5.44531 17.6531 5.62011 17.8003L5.77929 17.9357C6.93993 18.3692 8.11376 18.8069 8.24804 20.1662C8.28906 20.587 8.28515 20.5686 7.86572 20.5766C5.65282 20.6189 2.57128 20.5414 0.405753 20.5766C0.0121977 20.5827 -0.0283297 20.61 0.012686 20.0707C0.316397 18.6861 1.16991 18.4223 2.4536 17.9418C2.52148 17.8825 2.60888 17.8115 2.70116 17.7363C2.90771 17.568 3.14208 17.3766 3.19872 17.2991C3.12402 17.2267 3.05517 17.1514 2.98827 17.0762L2.70263 16.757L2.52099 16.7617L2.12646 16.7715C1.78759 16.3963 1.80907 15.5905 1.8413 15.125C1.9995 14.1898 2.37499 13.5161 2.98632 13.1268C3.40087 12.863 3.64794 12.8484 4.13232 12.848C4.55468 12.8475 4.81396 12.839 5.17431 13.0675C6.34863 13.8123 6.7124 15.5698 6.13867 16.7532H5.75439L5.50634 17.0386C5.40087 17.1608 5.29394 17.2835 5.16699 17.3912ZM2.79882 16.5985C2.8203 16.6046 2.83837 16.615 2.85107 16.6291L3.17675 16.993C3.4746 17.3259 3.73437 17.5666 4.22167 17.5671C4.75048 17.568 5.00146 17.3216 5.31591 16.9577L5.60253 16.6272C5.61474 16.6136 5.63134 16.6032 5.65038 16.5971C5.67626 16.512 5.69677 16.4231 5.71093 16.33C5.76122 16.0042 5.76318 15.7508 5.61034 15.4503C5.47851 15.1908 5.29296 15.0563 5.09081 14.9604C5.30907 15.195 5.48974 15.4231 5.44189 15.6097C5.17529 15.3276 4.90038 15.0817 4.61572 14.8777C4.0205 14.5815 3.6704 14.1804 3.51415 13.6947C2.63622 14.5392 2.479 15.5256 2.79882 16.5985ZM21.7524 16.8815C22.2627 16.3385 22.3989 15.9722 22.3311 15.2397C22.3203 15.1226 22.3022 15.0037 22.2773 14.8833C21.8608 14.6976 21.5889 14.289 21.4492 13.6759C21.2827 14.8434 19.7935 14.7935 19.4189 15.006C19.4189 15.1043 19.416 15.1974 19.4136 15.2863C19.397 15.8876 19.4429 16.2073 19.7573 16.6874C19.8101 16.7678 19.8613 16.8453 19.9233 16.9098C20.4238 17.4293 21.2793 17.3639 21.7524 16.8815ZM17.6987 17.528C18.0361 17.5022 18.2681 17.3193 18.4248 17.055C18.585 16.7875 18.6694 16.4354 18.7124 16.0771C18.7339 15.8914 18.7476 15.6925 18.7607 15.4903C18.8267 14.502 18.8984 13.4347 20.0649 12.981C20.2415 12.9125 20.4273 12.8686 20.6167 12.8508C21.0195 12.8127 21.4312 12.8931 21.7856 13.0882C22.1406 13.2843 22.4404 13.596 22.6187 14.0206C22.7007 14.2157 22.7573 14.4353 22.7817 14.6783V14.6812C22.7788 15.2778 22.8779 16.1166 23.147 16.7306C23.3403 17.1721 23.6221 17.4975 24.0151 17.528C24.0313 17.529 24.0435 17.5431 24.0425 17.5586L24.0396 17.5694C23.9634 17.7659 23.6284 17.9178 23.2275 17.9916C23.8271 18.1322 24.2427 18.3015 24.5244 18.6C24.8706 18.9677 25 19.5145 25 20.4238C25 20.484 24.9492 20.5324 24.8872 20.5324H16.8267C16.7642 20.5324 16.7134 20.484 16.7134 20.4238C16.7134 19.5385 16.8359 18.9912 17.1626 18.6207C17.4287 18.3189 17.8213 18.1444 18.3853 18.01C18.0342 17.9263 17.7461 17.7645 17.6733 17.5661C17.668 17.5515 17.6758 17.5351 17.6909 17.5299L17.6987 17.528ZM22.311 18.0161C22.2559 18.0081 22.2026 17.9982 22.1509 17.986C21.9922 17.9488 21.8521 17.8915 21.7471 17.8125C21.5874 17.6917 21.5083 17.5215 21.5615 17.2934C21.0825 17.5812 20.5801 17.5807 20.104 17.285L20.0718 17.2676C20.0693 17.4034 19.9805 17.8026 19.8442 17.8825C19.624 18.0114 19.2695 18.0673 19.0103 18.1078C18.9482 18.1176 18.8921 18.1261 18.8418 18.136C18.7593 18.1515 18.6802 18.1675 18.604 18.1835C19.3384 18.8708 20.0781 19.255 20.8223 19.2766C21.5684 19.2982 22.3311 18.955 23.1123 18.1877C22.9985 18.1618 22.8779 18.1374 22.7505 18.1125L22.7319 18.1087C22.623 18.088 22.4697 18.0589 22.311 18.0161ZM10.2749 1.36544C11.3144 0.12795 12.5127 -0.544865 13.4126 0.555805C14.4971 0.610815 14.9316 2.26958 14.0669 2.96778L14.062 3.00916C14.0957 2.99881 14.1299 2.9927 14.1621 2.99035C14.2261 2.98565 14.2871 2.99552 14.3394 3.02232C14.396 3.05147 14.4399 3.09896 14.4624 3.16572C14.4839 3.23061 14.4844 3.31289 14.4565 3.41397C14.416 3.53481 14.3667 3.67116 14.3188 3.78917C14.2978 3.84559 14.2778 3.8865 14.2353 3.91894L14.2329 3.92035C14.189 3.95373 14.1343 3.96596 14.0522 3.96172L14.0146 3.95749C14.0068 4.33457 13.8301 4.52593 13.5908 4.7455C13.8179 5.50765 14.4448 5.62425 15.0601 5.73897C15.8872 5.89272 16.6665 7.07943 16.6665 7.69958V8.04751C16.6665 8.10628 16.6167 8.15377 16.5557 8.15377H8.4121C8.35107 8.15377 8.30175 8.10628 8.30175 8.04751V7.73296C8.30175 6.94073 9.19433 5.90165 10.0635 5.78928C10.7021 5.707 11.3462 5.62378 11.5684 4.86868L11.5098 4.81979C11.2417 4.5974 11.0171 4.41121 10.9746 3.9589L10.9512 3.95937C10.8959 3.95939 10.8416 3.94562 10.7935 3.91941C10.7134 3.87615 10.6577 3.80093 10.6201 3.71676C10.5752 3.61662 10.5547 3.49955 10.5503 3.41209V3.25835L10.5586 3.1267L10.5654 3.10131C10.6216 2.95133 10.708 2.9029 10.8213 2.90619L10.7461 2.85823C10.7056 2.37067 10.8242 1.5253 10.2749 1.36544ZM13.4307 4.89125L13.4175 4.90301L13.3618 4.95284C13.3169 4.99657 13.2656 5.03512 13.209 5.06851C12.9912 5.21379 12.7617 5.28478 12.5303 5.28478C12.2627 5.28525 11.9946 5.19075 11.7402 5.00691C11.6465 5.36989 11.4053 5.65904 11.0561 5.82266C12.0674 6.41649 13.0644 6.39909 14.0454 5.69807C13.6733 5.53586 13.4805 5.2246 13.4307 4.89125ZM11.0044 3.15021C10.8818 3.1093 10.7949 3.09003 10.7617 3.16337L10.7563 3.26305V3.40175C10.7598 3.47134 10.7754 3.56255 10.8091 3.63825C10.8306 3.6862 10.8594 3.72758 10.895 3.74733C10.9126 3.75673 10.9326 3.76096 10.9536 3.76143C10.979 3.76143 11.0078 3.75626 11.0381 3.74827L11.0684 3.74262C11.125 3.74168 11.1728 3.78494 11.1738 3.83948C11.1851 4.28896 11.3926 4.46105 11.644 4.66933L11.7495 4.75772C12.0019 4.974 12.2685 5.08637 12.5303 5.08637C12.7837 5.08684 13.0381 4.98011 13.2744 4.76007L13.3818 4.66228C13.646 4.42343 13.8408 4.24665 13.8032 3.81738C13.8022 3.79622 13.8071 3.77413 13.8203 3.75532C13.8511 3.70971 13.9155 3.69702 13.9629 3.72664L14.0176 3.75438L14.061 3.76331L14.1074 3.76378C14.1636 3.63307 14.209 3.49343 14.2578 3.35991C14.2744 3.29972 14.2759 3.25553 14.2666 3.22732C14.2612 3.21274 14.2529 3.2024 14.2422 3.19723C14.227 3.1897 14.2041 3.18641 14.1777 3.18876C14.1201 3.19299 14.0527 3.21979 13.9927 3.26352C13.9707 3.27904 13.9424 3.28656 13.9136 3.28186C13.8574 3.27292 13.8198 3.2212 13.8291 3.16714C13.9263 2.62127 13.8818 2.26488 13.7612 2.02274C13.6553 1.81022 13.4863 1.68092 13.3032 1.58501C12.8979 1.88451 12.6113 1.91883 12.3262 1.95268C12.0903 1.98089 11.854 2.0091 11.5425 2.21692C11.3945 2.31519 11.2954 2.43555 11.2451 2.57425C11.1938 2.7153 11.1909 2.8808 11.2339 3.0684C11.2373 3.08674 11.2363 3.10601 11.2295 3.12435C11.22 3.14899 11.2007 3.16901 11.1759 3.18002C11.1511 3.19104 11.1228 3.19215 11.0972 3.18312L11.0044 3.15021ZM18.3413 8.81201C18.1011 8.61783 18.0703 8.27178 18.2715 8.04046C18.4731 7.80913 18.8325 7.77951 19.0728 7.97322C19.626 8.42035 20.125 8.92485 20.5557 9.48435C20.8394 9.85202 21.0981 10.2437 21.3262 10.657C21.4717 10.9264 21.3652 11.2583 21.0879 11.3989C20.8081 11.5395 20.4634 11.4365 20.3174 11.1694C20.121 10.8103 19.895 10.4669 19.6416 10.1426C19.252 9.64139 18.8315 9.21635 18.3413 8.81201ZM15.1084 21.4079C15.4062 21.311 15.729 21.4671 15.8296 21.7539C15.9302 22.0407 15.7681 22.351 15.4702 22.4479C14.991 22.604 14.499 22.7212 13.9995 22.7982C13.4985 22.8772 12.9916 22.9169 12.4839 22.9167C11.9639 22.9167 11.4482 22.8753 10.9409 22.7944C10.4214 22.7112 9.9204 22.5885 9.4414 22.4305C9.14404 22.3313 8.98388 22.0186 9.08642 21.7318C9.18896 21.445 9.51367 21.2908 9.81152 21.39C10.2388 21.5301 10.6782 21.6392 11.1221 21.7102C11.5596 21.7798 12.0137 21.8169 12.4819 21.8169C12.9419 21.8169 13.3877 21.7817 13.8149 21.7144C14.2603 21.6467 14.6919 21.5419 15.1084 21.4079Z" fill="#344054"/>
</svg>
